# xmcd CD database file
#
# Track frame offsets:
#	150
#	20711
#	49833
#	75686
#	102291
#	103617
#	117982
#	188228
#
# Disc length: 2579 seconds
#
# Revision: 0
# Processed by: cddbd v1.5.2PL0 Copyright (c) Steve Scherf et al.
# Submitted via: CDex 1.51
#
DISCID=650a1108
DTITLE=Association P.C. - Sun Rotation
DYEAR=1900
DGENRE=Jazz
TTITLE0=Idee A
TTITLE1=a) Scorpion
TTITLE2=b) Neuteboom
TTITLE3=c) Scorcussion
TTITLE4=Silence
TTITLE5=Don Paul
TTITLE6=Totemism
TTITLE7=Frau Theunissen
EXTD=
EXTT0=
EXTT1=
EXTT2=
EXTT3=
EXTT4=
EXTT5=
EXTT6=
EXTT7=
PLAYORDER=
